<svg width="1024" height="1024" viewBox="0 0 1024 1024" fill="none" xmlns="http://www.w3.org/2000/svg">
<g clip-path="url(#clip0_1_2)">
<rect width="1024" height="1024" fill="#1A1A1A"/>
<path d="M853.333 1024L853.333 853" stroke="#292929" stroke-width="6"/>
<path d="M682.663 1024L682.663 -7.62939e-06" stroke="#292929" stroke-width="6"/>
<path d="M511.993 1024L511.993 -7.62939e-06" stroke="#292929" stroke-width="6"/>
<path d="M341.323 1024L341.323 -7.62939e-06" stroke="#292929" stroke-width="6"/>
<path d="M170.653 1024L170.653 -7.62939e-06" stroke="#292929" stroke-width="6"/>
<path d="M853.333 853.333L853.333 682.333" stroke="#292929" stroke-width="6"/>
<path d="M853.333 682.667L853.333 511.667" stroke="#292929" stroke-width="6"/>
<path d="M853.333 512L853.333 341" stroke="#292929" stroke-width="6"/>
<path d="M853.333 341.333L853.333 170.333" stroke="#292929" stroke-width="6"/>
<path d="M853.333 170.667L853.333 -0.333435" stroke="#292929" stroke-width="6"/>
<path d="M853 853.333L1024 853.333" stroke="#292929" stroke-width="6"/>
<path d="M682.333 853.333L853.333 853.333" stroke="#292929" stroke-width="6"/>
<path d="M511.667 853.333L682.667 853.333" stroke="#292929" stroke-width="6"/>
<path d="M341 853.333L512 853.333" stroke="#292929" stroke-width="6"/>
<path d="M170.333 853.333L341.333 853.333" stroke="#292929" stroke-width="6"/>
<path d="M-0.333435 853.333L170.667 853.333" stroke="#292929" stroke-width="6"/>
<path d="M-0.333435 682.663L1024.67 682.663" stroke="#292929" stroke-width="6"/>
<path d="M-0.333435 511.993L1024.67 511.993" stroke="#292929" stroke-width="6"/>
<path d="M-0.333435 341.323L1024.67 341.323" stroke="#292929" stroke-width="6"/>
<path d="M-0.333435 170.653L1024.67 170.653" stroke="#292929" stroke-width="6"/>
<path d="M1024 938.667L853.333 938.667L763.5 1028.5" stroke="#2C67E5" stroke-width="6"/>
<path d="M2.12132 852.379L0 850.257L-4.24264 854.5L-2.12132 856.621L2.12132 852.379ZM-2.12132 856.621L171.879 1030.62L176.121 1026.38L2.12132 852.379L-2.12132 856.621Z" fill="#2C67E5"/>
<path d="M0 87.8333L170.667 87.8333L265.5 -7.00005" stroke="#E52C2C" stroke-width="6"/>
<path d="M1021.88 174.121L1024 176.243L1028.24 172L1026.12 169.879L1021.88 174.121ZM1026.12 169.879L852.121 -4.12132L847.879 0.121323L1021.88 174.121L1026.12 169.879Z" fill="#E52C2C"/>
<line x1="864.5" y1="691" x2="864.5" y2="724" stroke="#2C67E5" stroke-width="9"/>
<line x1="934.5" y1="691" x2="934.5" y2="724" stroke="#2C67E5" stroke-width="9"/>
<line x1="1004.5" y1="691" x2="1004.5" y2="724" stroke="#2C67E5" stroke-width="9"/>
<line y1="-4.5" x2="33" y2="-4.5" transform="matrix(4.37113e-08 1 1 -4.37113e-08 164 300)" stroke="#E52C2C" stroke-width="9"/>
<line y1="-4.5" x2="33" y2="-4.5" transform="matrix(4.37113e-08 1 1 -4.37113e-08 94 300)" stroke="#E52C2C" stroke-width="9"/>
<line y1="-4.5" x2="33" y2="-4.5" transform="matrix(4.37113e-08 1 1 -4.37113e-08 24 300)" stroke="#E52C2C" stroke-width="9"/>
<line x1="19.5" y1="691" x2="19.5" y2="724" stroke="#9E9E9E" stroke-width="9"/>
<line x1="89.5" y1="691" x2="89.5" y2="724" stroke="#9E9E9E" stroke-width="9"/>
<line x1="159.5" y1="691" x2="159.5" y2="724" stroke="#9E9E9E" stroke-width="9"/>
<line y1="-4.5" x2="33" y2="-4.5" transform="matrix(4.37113e-08 1 1 -4.37113e-08 1009 300)" stroke="#9E9E9E" stroke-width="9"/>
<line y1="-4.5" x2="33" y2="-4.5" transform="matrix(4.37113e-08 1 1 -4.37113e-08 939 300)" stroke="#9E9E9E" stroke-width="9"/>
<line y1="-4.5" x2="33" y2="-4.5" transform="matrix(4.37113e-08 1 1 -4.37113e-08 869 300)" stroke="#9E9E9E" stroke-width="9"/>
<path d="M388 341H340.5L273 511.5L340.5 682H388M635.5 341H683L750.5 511L683 682H635.5" stroke="#BCBCBC" stroke-width="6"/>
<path d="M384 341L637 341" stroke="#E52C2C" stroke-width="6"/>
<path d="M383 682L636 682" stroke="#2C67E5" stroke-width="6"/>
</g>
<defs>
<clipPath id="clip0_1_2">
<rect width="1024" height="1024" fill="white"/>
</clipPath>
</defs>
</svg>
