<!DOCTYPE svg PUBLIC "-//W3C//DTD SVG 1.1//EN" "http://www.w3.org/Graphics/SVG/1.1/DTD/svg11.dtd">
<!-- Uploaded to: SVG Repo, www.svgrepo.com, Transformed by: SVG Repo Mixer Tools -->
<svg width="800px" height="800px" viewBox="-2.4 -2.4 28.80 28.80" fill="none" xmlns="http://www.w3.org/2000/svg">

<g id="SVGRepo_bgCarrier" stroke-width="0" transform="translate(0,0), scale(1)">

<path transform="translate(-2.4, -2.4), scale(0.8999999999999999)" d="M16,29.97245552816561C18.914313827619264,30.034304651764142,22.21436736872917,31.04602734837188,24.54051595256138,29.28930222306679C26.86525156449521,27.533644184899853,26.59980863063094,24.026210884622724,27.529453049233915,21.265324782782614C28.348519700817942,18.832835876715382,29.93511398300604,16.587198759205705,29.677450213296005,14.033479542131118C29.41532516187001,11.435544326572717,27.623111169630675,9.367035910583077,26.11395121213669,7.236211387183671C24.44686135518416,4.882401287554768,23.177396624989676,1.7936609404675994,20.416726984787037,0.9580092702529939C17.65458353467433,0.12191147939613989,14.810273347720734,1.8137753297541763,12.189070256632618,3.021165204710206C9.87642915804388,4.086423923630801,7.952652184107557,5.66138712237578,6.198739926723601,7.507159801368616C4.36848730475078,9.433271139646864,2.4540910527634665,11.38347163989029,1.7966646819263286,13.957868678928815C1.1016392475726802,16.67949881064701,1.4209816790262892,19.574397301103694,2.4496141087468803,22.18825388722352C3.5135745214358467,24.891882366867357,5.169982091743986,27.484411893796374,7.689315785101584,28.9316770585895C10.160208214290734,30.35111448688453,13.151060479675007,29.911993813010774,16,29.97245552816561" fill="#000000" strokewidth="0"/>

</g>

<g id="SVGRepo_tracerCarrier" stroke-linecap="round" stroke-linejoin="round" stroke="#CCCCCC" stroke-width="0.43200000000000005"/>

<g id="SVGRepo_iconCarrier"> <path d="M9.75 12C9.75 10.7574 10.7574 9.75 12 9.75C13.2426 9.75 14.25 10.7574 14.25 12C14.25 13.2426 13.2426 14.25 12 14.25C10.7574 14.25 9.75 13.2426 9.75 12Z" fill="#ffffff"/> <path fill-rule="evenodd" clip-rule="evenodd" d="M2 12C2 13.6394 2.42496 14.1915 3.27489 15.2957C4.97196 17.5004 7.81811 20 12 20C16.1819 20 19.028 17.5004 20.7251 15.2957C21.575 14.1915 22 13.6394 22 12C22 10.3606 21.575 9.80853 20.7251 8.70433C19.028 6.49956 16.1819 4 12 4C7.81811 4 4.97196 6.49956 3.27489 8.70433C2.42496 9.80853 2 10.3606 2 12ZM12 8.25C9.92893 8.25 8.25 9.92893 8.25 12C8.25 14.0711 9.92893 15.75 12 15.75C14.0711 15.75 15.75 14.0711 15.75 12C15.75 9.92893 14.0711 8.25 12 8.25Z" fill="#ffffff"/> </g>

</svg>